<?xml version="1.0" encoding="UTF-8"?>
<svg xmlns="http://www.w3.org/2000/svg" xmlns:xlink="http://www.w3.org/1999/xlink" viewBox="0 0 20 20" width="20px" height="20px">
<g id="surface11151749">
<path style="fill-rule:nonzero;fill:rgb(100%,100%,100%);fill-opacity:1;stroke-width:4;stroke-linecap:butt;stroke-linejoin:round;stroke:rgb(100%,100%,100%);stroke-opacity:1;stroke-miterlimit:10;" d="M 44.394639 6.881045 C 44.497793 6.881045 127.158361 6.881045 127.2959 6.881045 C 129.187052 6.881045 130.734359 8.428352 130.734359 10.319505 L 130.734359 161.680495 C 130.734359 162.918341 130.081052 164.053033 129.015129 164.671955 C 127.949207 165.325263 126.642592 165.325263 125.57667 164.70634 L 86 141.565507 L 46.42333 164.70634 C 45.357408 165.325263 44.050793 165.325263 42.984871 164.671955 C 41.918948 164.053033 41.265641 162.918341 41.265641 161.680495 L 41.265641 10.319505 C 41.265641 8.63466 42.434717 7.190507 44.085178 6.881045 C 44.188332 6.881045 44.291485 6.881045 44.394639 6.881045 Z M 48.176945 155.663191 L 84.28077 134.585434 C 85.346693 133.966511 86.653307 133.966511 87.71923 134.585434 L 123.823055 155.663191 L 123.823055 13.757964 L 48.176945 13.757964 Z M 48.176945 155.663191 " transform="matrix(0.113605,0,0,0.113605,0.23,0.23)"/>
<path style=" stroke:none;fill-rule:nonzero;fill:rgb(100%,100%,100%);fill-opacity:1;" d="M 5.238281 1.011719 C 5.050781 1.046875 4.917969 1.210938 4.917969 1.402344 L 4.917969 18.597656 C 4.917969 18.738281 4.992188 18.867188 5.113281 18.9375 C 5.234375 19.011719 5.382812 19.011719 5.503906 18.941406 L 10 16.3125 L 14.496094 18.941406 C 14.617188 19.011719 14.765625 19.011719 14.886719 18.9375 C 15.007812 18.867188 15.082031 18.738281 15.082031 18.597656 L 15.082031 1.402344 C 15.082031 1.1875 14.90625 1.011719 14.691406 1.011719 L 5.308594 1.011719 C 5.296875 1.011719 5.285156 1.011719 5.273438 1.011719 C 5.261719 1.011719 5.25 1.011719 5.238281 1.011719 Z M 5.703125 1.792969 L 14.296875 1.792969 L 14.296875 17.914062 L 10.195312 15.519531 C 10.074219 15.449219 9.925781 15.449219 9.804688 15.519531 L 5.703125 17.914062 Z M 5.703125 1.792969 "/>
</g>
</svg>
