<?xml version="1.0" encoding="UTF-8"?>
<svg xmlns="http://www.w3.org/2000/svg" xmlns:xlink="http://www.w3.org/1999/xlink" viewBox="0 0 20 20" width="20px" height="20px">
<g id="surface10507999">
<path style=" stroke:none;fill-rule:nonzero;fill:rgb(100%,100%,100%);fill-opacity:1;" d="M 5.125 0.800781 C 4.933594 0.835938 4.796875 1.003906 4.800781 1.199219 L 4.800781 18.800781 C 4.796875 18.945312 4.875 19.078125 5 19.148438 C 5.121094 19.222656 5.273438 19.222656 5.398438 19.148438 L 10 16.460938 L 14.601562 19.148438 C 14.726562 19.222656 14.878906 19.222656 15 19.148438 C 15.125 19.078125 15.203125 18.945312 15.199219 18.800781 L 15.199219 1.199219 C 15.199219 0.980469 15.019531 0.800781 14.800781 0.800781 L 5.199219 0.800781 C 5.1875 0.800781 5.175781 0.800781 5.164062 0.800781 C 5.148438 0.800781 5.136719 0.800781 5.125 0.800781 Z M 5.601562 1.601562 L 14.398438 1.601562 L 14.398438 18.101562 L 10.199219 15.648438 C 10.078125 15.578125 9.921875 15.578125 9.800781 15.648438 L 5.601562 18.101562 Z M 5.601562 1.601562 "/>
</g>
</svg>
