<?xml version="1.0" encoding="UTF-8"?>
<svg xmlns="http://www.w3.org/2000/svg" xmlns:xlink="http://www.w3.org/1999/xlink" viewBox="0 0 20 20" width="20px" height="20px">
<g id="surface11061246">
<path style="fill-rule:nonzero;fill:rgb(100%,100%,100%);fill-opacity:1;stroke-width:4;stroke-linecap:butt;stroke-linejoin:round;stroke:rgb(100%,100%,100%);stroke-opacity:1;stroke-miterlimit:10;" d="M 127.2959 165.118955 C 126.676977 165.118955 126.092439 164.947032 125.542285 164.637571 L 86 141.565507 L 46.457715 164.637571 C 45.391793 165.256493 44.085178 165.290878 43.019255 164.671955 C 41.953333 164.053033 41.265641 162.918341 41.265641 161.680495 L 41.265641 10.319505 C 41.265641 8.428352 42.812948 6.881045 44.704101 6.881045 L 127.2959 6.881045 C 129.187052 6.881045 130.734359 8.428352 130.734359 10.319505 L 130.734359 161.680495 C 130.734359 162.918341 130.046667 164.053033 128.980745 164.671955 C 128.464976 164.981417 127.880438 165.118955 127.2959 165.118955 Z M 127.2959 165.118955 " transform="matrix(0.113605,0,0,0.113605,0.23,0.23)"/>
<path style=" stroke:none;fill-rule:nonzero;fill:rgb(100%,100%,100%);fill-opacity:1;" d="M 14.691406 18.988281 C 14.621094 18.988281 14.554688 18.96875 14.492188 18.933594 L 10 16.3125 L 5.507812 18.933594 C 5.386719 19.003906 5.238281 19.007812 5.117188 18.9375 C 4.996094 18.867188 4.917969 18.738281 4.917969 18.597656 L 4.917969 1.402344 C 4.917969 1.1875 5.09375 1.011719 5.308594 1.011719 L 14.691406 1.011719 C 14.90625 1.011719 15.082031 1.1875 15.082031 1.402344 L 15.082031 18.597656 C 15.082031 18.738281 15.003906 18.867188 14.882812 18.9375 C 14.824219 18.972656 14.757812 18.988281 14.691406 18.988281 Z M 14.691406 18.988281 "/>
</g>
</svg>
